<?xml version="1.0" encoding="UTF-8"?>
<svg version="1.1" xmlns="http://www.w3.org/2000/svg" width="130" height="61">
<path d="M0 0 C42.9 0 85.8 0 130 0 C130 20.13 130 40.26 130 61 C87.1 61 44.2 61 0 61 C0 40.87 0 20.74 0 0 Z " fill="#DEB65C" transform="translate(0,0)"/>
<path d="M0 0 C42.9 0 85.8 0 130 0 C130 20.13 130 40.26 130 61 C87.1 61 44.2 61 0 61 C0 40.87 0 20.74 0 0 Z M17 13 C11.94936823 20.07333624 11.34123719 26.48000105 12 35 C10.81857422 35.19916016 10.81857422 35.19916016 9.61328125 35.40234375 C6.76530551 36.05367452 5.82535834 36.79035569 4 39 C6.64 38.34 9.28 37.68 12 37 C12.13535156 37.556875 12.27070313 38.11375 12.41015625 38.6875 C14.49404776 46.07470822 17.93064904 51.51145913 24.57421875 55.57421875 C32.09913243 59.40807988 37.88017153 60.20851386 46.25 60.25 C47.27480469 60.270625 48.29960938 60.29125 49.35546875 60.3125 C55.37677128 60.3434977 59.67120854 59.86008581 65 57 C65 55.68 65 54.36 65 53 C68.3 53 71.6 53 75 53 C72.75 57.5 72.75 57.5 69 59 C74.99765582 59.39282892 80.9957902 59.72465214 87 60 C87.7734375 60.03689941 88.546875 60.07379883 89.34375 60.11181641 C100.54992328 60.58603598 110.20494457 60.07153701 119.375 52.875 C125.33563177 47.22035549 129.08829967 39.13851191 129.3125 30.9375 C129.23363814 23.48505435 126.85645533 17.89388625 122.875 11.6875 C117.18033785 6.36422886 109.83633491 2.86092099 101.96582031 2.88647461 C101.18531311 2.88655014 100.40480591 2.88662567 99.60064697 2.88670349 C98.76821472 2.89186478 97.93578247 2.89702606 97.078125 2.90234375 C96.21813904 2.9037587 95.35815308 2.90517365 94.47210693 2.90663147 C91.73136891 2.91221903 88.99071324 2.92476925 86.25 2.9375 C84.3893241 2.94251661 82.52864691 2.94707923 80.66796875 2.95117188 C76.11194754 2.96218439 71.55598772 2.97944049 67 3 C67 3.33 67 3.66 67 4 C69.31 4.66 71.62 5.32 74 6 C74.33 17.55 74.66 29.1 75 41 C72.03 40.67 69.06 40.34 66 40 C66.33 38.02 66.66 36.04 67 34 C68.32 33.67 69.64 33.34 71 33 C71 32.34 71 31.68 71 31 C63.74 31 56.48 31 49 31 C49 31.66 49 32.32 49 33 C49.969375 33.28875 50.93875 33.5775 51.9375 33.875 C55 35 55 35 56 37 C55.19175781 36.72285156 54.38351563 36.44570313 53.55078125 36.16015625 C52.48214844 35.79792969 51.41351563 35.43570313 50.3125 35.0625 C49.25675781 34.70285156 48.20101562 34.34320313 47.11328125 33.97265625 C41.32770675 32.16511792 36.20305243 31.87194914 30.1875 31.9375 C29.00510742 31.94426758 29.00510742 31.94426758 27.79882812 31.95117188 C25.86585239 31.96288688 23.93291607 31.98082002 22 32 C24.09158583 15.41495474 24.09158583 15.41495474 29.9375 10.1875 C36.19058184 5.72101297 43.5585608 6.4288369 51 7 C55.19922169 7.96815389 58.75520506 9.12477665 61.2109375 12.82421875 C62.0625 14.75 62.0625 14.75 63 18 C63.66 18 64.32 18 65 18 C65 13.38 65 8.76 65 4 C58.70112713 1.76952094 52.76951655 1.63319299 46.125 1.625 C44.56845703 1.58826172 44.56845703 1.58826172 42.98046875 1.55078125 C32.29946016 1.5103739 24.12797016 4.92679901 17 13 Z " fill="#12120D" transform="translate(0,0)"/>
<path d="M0 0 C7.79413683 0.09928837 14.96585285 2.31461897 21.0625 7.25 C26.57782679 13.23806909 28.59086288 18.65365585 28.4375 26.625 C28.42734863 27.37942383 28.41719727 28.13384766 28.40673828 28.91113281 C28.23948545 34.8933387 27.91662729 40.08421513 23.703125 44.7578125 C18.36316438 49.57478729 13.53510416 50.5415414 6.5 50.5625 C5.19933594 50.57925781 3.89867188 50.59601562 2.55859375 50.61328125 C-1.02710936 50.24068864 -2.51516574 49.88190007 -4.9375 47.25 C-4.9375 46.26 -4.9375 45.27 -4.9375 44.25 C-2.75 42.64453125 -2.75 42.64453125 0.0625 41.0625 C0.990625 40.53269531 1.91875 40.00289062 2.875 39.45703125 C3.596875 39.05871094 4.31875 38.66039062 5.0625 38.25 C1.68026343 38.94704173 -1.15157819 40.24242277 -4.25 41.75 C-8.56845937 43.73215 -12.14344415 44.98850604 -16.9375 45.25 C-17.6490625 45.311875 -18.360625 45.37375 -19.09375 45.4375 C-25.83613834 45.78775394 -31.62498989 44.13043795 -38.03125 42.125 C-40.75082856 41.15390255 -40.75082856 41.15390255 -42.9375 41.25 C-39.9675 42.24 -36.9975 43.23 -33.9375 44.25 C-33.894779 45.91611905 -33.89686168 47.58382885 -33.9375 49.25 C-35.8255316 51.1380316 -38.84910377 50.55430753 -41.375 50.625 C-49.25922473 50.54479426 -55.13521265 49.03644449 -60.8125 43.3828125 C-64.14654434 39.26334425 -65.86161593 35.41424356 -66.9375 30.25 C-61.78656083 30.02099667 -57.96922367 30.66478657 -53.140625 32.4375 C-51.84868455 32.89628488 -50.55609676 33.35325006 -49.26293945 33.80859375 C-48.59702789 34.04562012 -47.93111633 34.28264648 -47.24502563 34.52685547 C-32.4404416 39.73012186 -17.9968231 44.49376646 -2.9375 37.4375 C0.294618 35.57811393 2.39501046 33.91748954 5.0625 31.25 C0.1125 32.735 0.1125 32.735 -4.9375 34.25 C-4.96215288 29.56860746 -4.98033739 24.88725241 -4.99243164 20.20581055 C-4.99747157 18.61205386 -5.0043035 17.01830181 -5.01293945 15.42456055 C-5.02501999 13.13849747 -5.03073155 10.85249533 -5.03515625 8.56640625 C-5.04031754 7.84973282 -5.04547882 7.13305939 -5.05079651 6.39466858 C-5.05099263 4.67936328 -4.99942007 2.96418734 -4.9375 1.25 C-3.9375 0.25 -3.9375 0.25 0 0 Z " fill="#11110D" transform="translate(89.9375,5.75)"/>
<path d="M0 0 C1.04542969 0.00128906 2.09085938 0.00257812 3.16796875 0.00390625 C8.77171558 0.0676657 13.58457665 0.50162063 18.875 2.375 C18.875 6.995 18.875 11.615 18.875 16.375 C18.215 16.375 17.555 16.375 16.875 16.375 C16.565625 15.3025 16.25625 14.23 15.9375 13.125 C14.53460544 9.952399 13.14762574 8.52593835 10.0625 6.9375 C3.00478437 4.25764726 -6.03529926 3.88639491 -13.1875 6.5 C-18.62748688 9.97233205 -21.67860247 14.10727737 -23.125 20.375 C-23.55469114 23.7026081 -23.87375365 27.02945653 -24.125 30.375 C-22.37123047 30.35759766 -22.37123047 30.35759766 -20.58203125 30.33984375 C-19.03385577 30.33046087 -17.48567855 30.3213612 -15.9375 30.3125 C-15.16857422 30.30412109 -14.39964844 30.29574219 -13.60742188 30.28710938 C-9.63973211 30.27008066 -5.99928766 30.38895885 -2.125 31.375 C-3.115 31.87 -3.115 31.87 -4.125 32.375 C-4.78272428 35.40434491 -4.78272428 35.40434491 -5.125 38.375 C-5.84945312 38.1584375 -6.57390625 37.941875 -7.3203125 37.71875 C-14.59167314 35.60896431 -14.59167314 35.60896431 -22.125 35.375 C-19.05114011 43.25713233 -15.50537057 48.8962673 -7.66015625 52.66015625 C-2.29829562 54.17205224 3.36037553 53.65382933 8.875 53.375 C9.205 51.725 9.535 50.075 9.875 48.375 C9.029375 48.271875 8.18375 48.16875 7.3125 48.0625 C3.46057299 47.2921146 0.43424969 46.01225486 -3.125 44.375 C0.7603495 43.0798835 2.45744318 43.98102556 6.3125 45.25 C15.04349834 48.09080265 22.20159024 49.1561431 31.375 47.75 C32.53 47.62625 33.685 47.5025 34.875 47.375 C36.875 49.375 36.875 49.375 37 53 C36.95875 54.11375 36.9175 55.2275 36.875 56.375 C34.11047967 57.75726016 31.8288637 57.47025387 28.75 57.4375 C27.65429688 57.42847656 26.55859375 57.41945312 25.4296875 57.41015625 C24.58664063 57.39855469 23.74359375 57.38695312 22.875 57.375 C23.49375 57.1275 24.1125 56.88 24.75 56.625 C27.33368886 55.36460746 27.33368886 55.36460746 28.875 51.375 C25.575 51.375 22.275 51.375 18.875 51.375 C18.545 53.025 18.215 54.675 17.875 56.375 C12.1662114 58.80220604 6.72090141 58.74215457 0.625 58.75 C-0.36113281 58.77449219 -1.34726562 58.79898438 -2.36328125 58.82421875 C-12.14260093 58.86287219 -20.15232926 56.19211706 -27.36328125 49.44921875 C-30.53185277 45.71859463 -34.125 40.42297649 -34.125 35.375 C-36.765 36.035 -39.405 36.695 -42.125 37.375 C-39.70188029 34.44174982 -37.80797866 33.9958622 -34.125 33.375 C-34.18300781 32.62476563 -34.24101563 31.87453125 -34.30078125 31.1015625 C-34.68826807 22.31114711 -33.2317866 16.02638222 -27.328125 9.33984375 C-19.1311361 1.61828021 -11.05030516 -0.26081466 0 0 Z " fill="#C49631" transform="translate(46.125,1.625)"/>
<path d="M0 0 C25.47547702 -0.92238184 25.47547702 -0.92238184 35.375 6.1875 C41.90382775 13.18267259 44.453521 20.47403218 44.33984375 29.921875 C43.46680297 37.82941678 39.96615117 45.25714949 34.03515625 50.6015625 C30.32441706 53.15136025 26.25814568 54.61535822 22 56 C20.515 56.495 20.515 56.495 19 57 C16.2186346 57.09719057 13.46814773 57.13917492 10.6875 57.125 C9.94048828 57.12886719 9.19347656 57.13273437 8.42382812 57.13671875 C4.17240142 57.12925356 0.18702309 56.83873595 -4 56 C-3.67 55.34 -3.34 54.68 -3 54 C-2.95745644 52.00045254 -2.95919217 49.99958364 -3 48 C-3 47.01 -3 46.02 -3 45 C-0.87959258 43.96966118 1.24647908 42.95097146 3.375 41.9375 C4.55835937 41.36902344 5.74171875 40.80054688 6.9609375 40.21484375 C7.96382812 39.81394531 8.96671875 39.41304687 10 39 C10.66 39.33 11.32 39.66 12 40 C10.75627811 40.98712878 9.50472782 41.96439905 8.25 42.9375 C7.55390625 43.48277344 6.8578125 44.02804688 6.140625 44.58984375 C4.03907872 45.97425654 2.45678201 46.56286987 0 47 C1.3089572 50.12197478 1.3089572 50.12197478 4 52 C16.24025869 53.01275852 16.24025869 53.01275852 27 48 C33.02612047 40.58323634 32.71388594 32.17420015 32.23095703 23.01269531 C31.57712786 17.31484365 28.54694491 13.54694491 24.625 9.625 C17.3453818 5.11856969 10.4304034 4.07757036 2 3 C2 2.34 2 1.68 2 1 C1.34 0.67 0.68 0.34 0 0 Z " fill="#E1BC6C" transform="translate(85,3)"/>
<path d="M0 0 C1.95825873 -0.02694851 3.91662226 -0.04637218 5.875 -0.0625 C6.96554688 -0.07410156 8.05609375 -0.08570313 9.1796875 -0.09765625 C12 0 12 0 14 1 C13.67 1.99 13.34 2.98 13 4 C12.8470353 6.51054905 12.74304822 8.99888525 12.68359375 11.51171875 C12.66281265 12.23994339 12.64203156 12.96816803 12.62062073 13.71846008 C12.55531254 16.04137875 12.49632763 18.36440906 12.4375 20.6875 C12.39429695 22.26368335 12.35068208 23.83985548 12.30664062 25.41601562 C12.1996504 29.27722975 12.09833039 33.13855603 12 37 C12.68707031 36.71125 13.37414062 36.4225 14.08203125 36.125 C14.98308594 35.75375 15.88414063 35.3825 16.8125 35 C17.70582031 34.62875 18.59914063 34.2575 19.51953125 33.875 C22 33 22 33 25 33 C23.2527456 34.29537826 21.50208483 35.58616273 19.75 36.875 C18.77546875 37.59429687 17.8009375 38.31359375 16.796875 39.0546875 C12.24601675 42.21994925 10.75005158 43 5 43 C5 29.14 5 15.28 5 1 C3.35 1 1.7 1 0 1 C0 0.67 0 0.34 0 0 Z " fill="#E4BF65" transform="translate(73,3)"/>
<path d="M0 0 C27.25263265 -0.98672671 27.25263265 -0.98672671 36 7 C36.4699707 9.26489258 36.4699707 9.26489258 36.42578125 11.89453125 C36.41321289 13.32829102 36.41321289 13.32829102 36.40039062 14.79101562 C36.37138672 15.78810547 36.34238281 16.78519531 36.3125 17.8125 C36.29799805 19.29073242 36.29799805 19.29073242 36.28320312 20.79882812 C36.20865517 25.62499785 35.99024953 30.25807339 35 35 C34.67 35 34.34 35 34 35 C33.91363281 34.09378906 33.82726562 33.18757813 33.73828125 32.25390625 C32.69387101 23.19915691 31.19085744 16.19085744 24.625 9.625 C17.3453818 5.11856969 10.4304034 4.07757036 2 3 C2 2.34 2 1.68 2 1 C1.34 0.67 0.68 0.34 0 0 Z " fill="#E4CA81" transform="translate(85,3)"/>
<path d="M0 0 C0.66 0.33 1.32 0.66 2 1 C0.75627811 1.98712878 -0.49527218 2.96439905 -1.75 3.9375 C-2.44609375 4.48277344 -3.1421875 5.02804688 -3.859375 5.58984375 C-5.96092128 6.97425654 -7.54321799 7.56286987 -10 8 C-8.6910428 11.12197478 -8.6910428 11.12197478 -6 13 C6.25644613 14.03632203 6.25644613 14.03632203 17 9 C18.8555265 6.75770149 20.39142813 4.4358374 22 2 C22.99 1.67 23.98 1.34 25 1 C25.66 3.31 26.32 5.62 27 8 C18.34967922 16.45809143 9.7942474 18.40099172 -1.98583984 18.29248047 C-6.06999015 18.1868805 -9.99028738 17.77424592 -14 17 C-13.67 16.34 -13.34 15.68 -13 15 C-12.95745644 13.00045254 -12.95919217 10.99958364 -13 9 C-13 8.01 -13 7.02 -13 6 C-10.87959258 4.96966118 -8.75352092 3.95097146 -6.625 2.9375 C-5.44164063 2.36902344 -4.25828125 1.80054688 -3.0390625 1.21484375 C-2.03617188 0.81394531 -1.03328125 0.41304687 0 0 Z " fill="#E3CA89" transform="translate(95,42)"/>
<path d="M0 0 C4.41990896 0.63619902 8.49525322 1.71965571 12.75 3.0625 C20.38956789 5.28199551 26.70063784 5.50716548 34.5 4.375 C35.655 4.25125 36.81 4.1275 38 4 C40 6 40 6 40.125 9.625 C40.08375 10.73875 40.0425 11.8525 40 13 C37.23547967 14.38226016 34.9538637 14.09525387 31.875 14.0625 C30.77929688 14.05347656 29.68359375 14.04445313 28.5546875 14.03515625 C27.29011719 14.01775391 27.29011719 14.01775391 26 14 C26.61875 13.7525 27.2375 13.505 27.875 13.25 C30.45868886 11.98960746 30.45868886 11.98960746 32 8 C28.7 8 25.4 8 22 8 C21.67 9.65 21.34 11.3 21 13 C15.12116651 15.61281488 9.29268272 15.18328202 3 15 C3 14.01 3 13.02 3 12 C5.97 11.34 8.94 10.68 12 10 C12.33 8.35 12.66 6.7 13 5 C12.154375 4.896875 11.30875 4.79375 10.4375 4.6875 C6.58557299 3.9171146 3.55924969 2.63725486 0 1 C0 0.67 0 0.34 0 0 Z " fill="#DBB55F" transform="translate(43,45)"/>
<path d="M0 0 C2.31 0.33 4.62 0.66 7 1 C6.67 1.99 6.34 2.98 6 4 C5.8470353 6.51054905 5.74304822 8.99888525 5.68359375 11.51171875 C5.66281265 12.23994339 5.64203156 12.96816803 5.62062073 13.71846008 C5.55531254 16.04137875 5.49632763 18.36440906 5.4375 20.6875 C5.39429695 22.26368335 5.35068208 23.83985548 5.30664062 25.41601562 C5.1996504 29.27722975 5.09833039 33.13855603 5 37 C5.68707031 36.71125 6.37414062 36.4225 7.08203125 36.125 C7.98308594 35.75375 8.88414063 35.3825 9.8125 35 C10.70582031 34.62875 11.59914063 34.2575 12.51953125 33.875 C15 33 15 33 18 33 C16.27898082 34.32316536 14.54781907 35.63314524 12.8125 36.9375 C11.84957031 37.66839844 10.88664062 38.39929687 9.89453125 39.15234375 C7 41 7 41 2 42 C2 28.47 2 14.94 2 1 C1.34 0.67 0.68 0.34 0 0 Z " fill="#EACB78" transform="translate(80,3)"/>
<path d="M0 0 C1.3293457 -0.01836914 1.3293457 -0.01836914 2.68554688 -0.03710938 C7.96378201 -0.0488301 12.31921038 0.45931631 17.3125 2.1875 C17.3125 6.8075 17.3125 11.4275 17.3125 16.1875 C16.6525 16.1875 15.9925 16.1875 15.3125 16.1875 C14.8484375 14.57875 14.8484375 14.57875 14.375 12.9375 C12.96453201 9.72007302 11.59710949 8.39972898 8.4375 6.875 C3.44762049 4.94316856 -1.67143886 4.28641695 -6.96484375 3.6796875 C-9.6875 3.1875 -9.6875 3.1875 -11.6875 1.1875 C-8.10630387 -0.60309807 -3.94318317 0.00280654 0 0 Z " fill="#DEB760" transform="translate(47.6875,1.8125)"/>
<path d="M0 0 C1.48168945 1.0168457 1.48168945 1.0168457 3 3 C3.26154123 5.65834628 3.34939122 8.07685104 3.29296875 10.73046875 C3.28872391 11.48088943 3.28447906 12.23131012 3.28010559 13.00447083 C3.2633245 15.39918026 3.2256749 17.79304534 3.1875 20.1875 C3.17245235 21.8118368 3.15876409 23.4361868 3.14648438 25.06054688 C3.11342305 29.04068948 3.06164594 33.02020163 3 37 C2.01 37 1.02 37 0 37 C-0.66 35.68 -1.32 34.36 -2 33 C-2.66 33 -3.32 33 -4 33 C-3.67 28.05 -3.34 23.1 -3 18 C-2.34 18.99 -1.68 19.98 -1 21 C-1.01160156 19.73542969 -1.02320312 18.47085937 -1.03515625 17.16796875 C-1.04453566 15.50781398 -1.0536357 13.84765761 -1.0625 12.1875 C-1.07087891 11.35412109 -1.07925781 10.52074219 -1.08789062 9.66210938 C-1.09111328 8.85966797 -1.09433594 8.05722656 -1.09765625 7.23046875 C-1.10289307 6.49207764 -1.10812988 5.75368652 -1.11352539 4.99291992 C-1 3 -1 3 0 0 Z " fill="#DDBF75" transform="translate(121,11)"/>
<path d="M0 0 C0.66 0.33 1.32 0.66 2 1 C0.75627811 1.98712878 -0.49527218 2.96439905 -1.75 3.9375 C-2.44609375 4.48277344 -3.1421875 5.02804688 -3.859375 5.58984375 C-5.96092128 6.97425654 -7.54321799 7.56286987 -10 8 C-8.6910428 11.12197478 -8.6910428 11.12197478 -6 13 C-4.12943209 13.2275015 -2.25314042 13.40962811 -0.375 13.5625 C0.62789062 13.64628906 1.63078125 13.73007812 2.6640625 13.81640625 C3.82035156 13.90728516 3.82035156 13.90728516 5 14 C5 14.33 5 14.66 5 15 C2.69 15 0.38 15 -2 15 C-2 15.66 -2 16.32 -2 17 C-1.34 17.33 -0.68 17.66 0 18 C-4.8333472 18.08333357 -9.23692563 17.95261487 -14 17 C-13.67 16.34 -13.34 15.68 -13 15 C-12.95745644 13.00045254 -12.95919217 10.99958364 -13 9 C-13 8.01 -13 7.02 -13 6 C-10.87959258 4.96966118 -8.75352092 3.95097146 -6.625 2.9375 C-5.44164063 2.36902344 -4.25828125 1.80054688 -3.0390625 1.21484375 C-2.03617188 0.81394531 -1.03328125 0.41304687 0 0 Z " fill="#E8CD80" transform="translate(95,42)"/>
<path d="M0 0 C3.4374823 -0.02901394 6.87493312 -0.04680335 10.3125 -0.0625 C11.28896484 -0.07087891 12.26542969 -0.07925781 13.27148438 -0.08789062 C14.20927734 -0.09111328 15.14707031 -0.09433594 16.11328125 -0.09765625 C16.97735596 -0.10289307 17.84143066 -0.10812988 18.73168945 -0.11352539 C21 0 21 0 24 1 C24 1.66 24 2.32 24 3 C25.45833358 4.62514468 25.45833358 4.62514468 27 6 C26.34 6.66 25.68 7.32 25 8 C21.60166289 7.58877265 18.43668741 6.54981823 15.1875 5.5 C10.76948946 4.14214069 6.59691614 3.42564038 2 3 C2 2.34 2 1.68 2 1 C1.34 0.67 0.68 0.34 0 0 Z " fill="#EADFAC" transform="translate(85,3)"/>
<path d="M0 0 C3.3 0 6.6 0 10 0 C9.34 1.65 8.68 3.3 8 5 C14.93 5.495 14.93 5.495 22 6 C18.19840121 7.90079939 17.01795859 8.24412145 13.015625 8.1953125 C12.08105469 8.18886719 11.14648438 8.18242188 10.18359375 8.17578125 C9.21550781 8.15902344 8.24742188 8.14226563 7.25 8.125 C6.26644531 8.11597656 5.28289062 8.10695313 4.26953125 8.09765625 C1.84610593 8.07412785 -0.57682222 8.04125368 -3 8 C-3 7.01 -3 6.02 -3 5 C-2.34 4.67 -1.68 4.34 -1 4 C-0.67 2.68 -0.34 1.36 0 0 Z " fill="#242116" transform="translate(65,53)"/>
<path d="M0 0 C0.33 0 0.66 0 1 0 C1 10.23 1 20.46 1 31 C-1.97 30.67 -4.94 30.34 -8 30 C-8.04254356 28.00045254 -8.04080783 25.99958364 -8 24 C-7 23 -7 23 -4.4375 22.9375 C-3.2309375 22.9684375 -3.2309375 22.9684375 -2 23 C-0.79729036 20.59458071 -0.79683337 18.89633409 -0.68359375 16.2109375 C-0.64169922 15.26992188 -0.59980469 14.32890625 -0.55664062 13.359375 C-0.51732422 12.37453125 -0.47800781 11.3896875 -0.4375 10.375 C-0.39431641 9.38242187 -0.35113281 8.38984375 -0.30664062 7.3671875 C-0.20038931 4.91160162 -0.09835036 2.45591297 0 0 Z " fill="#090908" transform="translate(74,10)"/>
<path d="M0 0 C11.22 0 22.44 0 34 0 C34 0.66 34 1.32 34 2 C36.97 2 39.94 2 43 2 C43 2.33 43 2.66 43 3 C40.58373582 3.19534474 38.16734771 3.38153404 35.75 3.5625 C35.06808594 3.61857422 34.38617188 3.67464844 33.68359375 3.73242188 C28.45058324 4.11346633 28.45058324 4.11346633 26.12304688 3.52734375 C23.51029349 2.87836177 21.049393 2.78375399 18.359375 2.68359375 C17.28945313 2.64169922 16.21953125 2.59980469 15.1171875 2.55664062 C14.00601563 2.51732422 12.89484375 2.47800781 11.75 2.4375 C10.06003906 2.37272461 10.06003906 2.37272461 8.3359375 2.30664062 C5.55741046 2.20067985 2.77879609 2.09860858 0 2 C0 1.34 0 0.68 0 0 Z " fill="#1B1A10" transform="translate(34,0)"/>
<path d="M0 0 C0.33 0 0.66 0 1 0 C1 10.89 1 21.78 1 33 C4.3 31.68 7.6 30.36 11 29 C11.99 29 12.98 29 14 29 C12.25579087 30.32018588 10.50439909 31.63088602 8.75 32.9375 C7.77546875 33.66839844 6.8009375 34.39929687 5.796875 35.15234375 C3 37 3 37 -1 38 C-0.67 25.46 -0.34 12.92 0 0 Z " fill="#A39262" transform="translate(84,7)"/>
<path d="M0 0 C2.39591038 -0.02712351 4.79150957 -0.0468982 7.1875 -0.0625 C7.86103516 -0.07087891 8.53457031 -0.07925781 9.22851562 -0.08789062 C12.95434131 -0.10606538 16.3788042 0.10700608 20 1 C19.01 1.495 19.01 1.495 18 2 C17.34227572 5.02934491 17.34227572 5.02934491 17 8 C14.03 7.01 11.06 6.02 8 5 C8.33 3.68 8.66 2.36 9 1 C6.03 1 3.06 1 0 1 C0 0.67 0 0.34 0 0 Z " fill="#C99C34" transform="translate(24,32)"/>
<path d="M0 0 C4.08319884 -0.0871142 8.16615864 -0.14043048 12.25 -0.1875 C13.40886719 -0.21263672 14.56773438 -0.23777344 15.76171875 -0.26367188 C16.87675781 -0.27333984 17.99179688 -0.28300781 19.140625 -0.29296875 C20.16704102 -0.3086792 21.19345703 -0.32438965 22.25097656 -0.34057617 C25.36219561 0.04487237 26.7062117 0.91975476 29 3 C18.69528837 4.79212376 10.06042731 3.90404087 0 1 C0 0.67 0 0.34 0 0 Z " fill="#252116" transform="translate(51,47)"/>
<path d="M0 0 C8.8293034 1.76586068 17.38564937 4.40877168 26 7 C26 7.33 26 7.66 26 8 C16.63388544 8.30213273 8.48729966 7.05914332 0 3 C0 2.01 0 1.02 0 0 Z " fill="#0B0B0B" transform="translate(39,40)"/>
<path d="M0 0 C10.56 0 21.12 0 32 0 C31.67 0.66 31.34 1.32 31 2 C27.52141784 2.19956481 24.0421401 2.38240361 20.5625 2.5625 C19.58861328 2.61857422 18.61472656 2.67464844 17.61132812 2.73242188 C11.59279841 3.0343548 5.97003796 2.83345928 0 2 C0 1.34 0 0.68 0 0 Z " fill="#0B0D0A" transform="translate(68,0)"/>
<path d="M0 0 C0 0.33 0 0.66 0 1 C2.97 1.33 5.94 1.66 9 2 C9 2.33 9 2.66 9 3 C8.04738281 3.12117187 7.09476563 3.24234375 6.11328125 3.3671875 C4.85902344 3.53476563 3.60476562 3.70234375 2.3125 3.875 C0.45044922 4.11863281 0.45044922 4.11863281 -1.44921875 4.3671875 C-4.57795295 4.92478369 -7.12148102 5.69008123 -10 7 C-10 5.02 -10 3.04 -10 1 C-3.71428571 -1.42857143 -3.71428571 -1.42857143 0 0 Z " fill="#BF9231" transform="translate(38,3)"/>
<path d="M0 0 C0 0.66 0 1.32 0 2 C-4.5683532 4.35785972 -8.97106679 4.42484112 -14 4 C-14.66 3.67 -15.32 3.34 -16 3 C-16 2.34 -16 1.68 -16 1 C-14.27327966 0.63409254 -12.54346345 0.28277805 -10.8125 -0.0625 C-9.36810547 -0.35833984 -9.36810547 -0.35833984 -7.89453125 -0.66015625 C-4.96389138 -1.00423947 -2.83692932 -0.74164697 0 0 Z " fill="#F6EFC0" transform="translate(109,56)"/>
<path d="M0 0 C0.99 0.33 1.98 0.66 3 1 C3.02705729 2.77074917 3.04642195 4.54161711 3.0625 6.3125 C3.07410156 7.29863281 3.08570313 8.28476562 3.09765625 9.30078125 C3 12 3 12 2 15 C1.34 15 0.68 15 0 15 C-1.30459914 12.39080172 -1.1326594 10.41057385 -1.125 7.5 C-1.12757812 6.5203125 -1.13015625 5.540625 -1.1328125 4.53125 C-1 2 -1 2 0 0 Z " fill="#D0AD5C" transform="translate(126,24)"/>
<path d="M0 0 C0.66 0.33 1.32 0.66 2 1 C0.75627811 1.98712878 -0.49527218 2.96439905 -1.75 3.9375 C-2.44609375 4.48277344 -3.1421875 5.02804688 -3.859375 5.58984375 C-5.96092128 6.97425654 -7.54321799 7.56286987 -10 8 C-8.84826645 10.46800047 -7.95216435 12.04783565 -6 14 C-7.65 13.67 -9.3 13.34 -11 13 C-12 10 -12 10 -11 7 C-11.66 6.67 -12.32 6.34 -13 6 C-10.87959258 4.96966118 -8.75352092 3.95097146 -6.625 2.9375 C-5.44164063 2.36902344 -4.25828125 1.80054688 -3.0390625 1.21484375 C-2.03617188 0.81394531 -1.03328125 0.41304687 0 0 Z " fill="#D4C287" transform="translate(95,42)"/>
<path d="M0 0 C1.98 0.66 3.96 1.32 6 2 C6.22174933 3.45635371 6.42698698 4.91522956 6.625 6.375 C6.74101563 7.18710938 6.85703125 7.99921875 6.9765625 8.8359375 C6.98429687 9.55007813 6.99203125 10.26421875 7 11 C6.34 11.66 5.68 12.32 5 13 C3.35 11.02 1.7 9.04 0 7 C0.66 6.01 1.32 5.02 2 4 C1.01 3.34 0.02 2.68 -1 2 C-0.67 1.34 -0.34 0.68 0 0 Z " fill="#E9D799" transform="translate(109,4)"/>
<path d="M0 0 C2.97 0.33 5.94 0.66 9 1 C5.25 6.875 5.25 6.875 3 8 C0.875 7.0625 0.875 7.0625 -1 6 C-0.67 4.02 -0.34 2.04 0 0 Z " fill="#D2AA50" transform="translate(42,34)"/>
<path d="M0 0 C0.66 0 1.32 0 2 0 C1.11917098 5.4611399 1.11917098 5.4611399 0 8 C-3.125 9.5 -3.125 9.5 -6 10 C-6.99 8.68 -7.98 7.36 -9 6 C-7.2421875 5.0234375 -5.484375 4.046875 -3.7265625 3.0703125 C-1.8387386 1.99102726 -1.8387386 1.99102726 0 0 Z " fill="#DCCF99" transform="translate(115,48)"/>
<path d="M0 0 C0.99 0.66 1.98 1.32 3 2 C3.1875 5.625 3.1875 5.625 3 9 C0.23547967 10.38226016 -2.0461363 10.09525387 -5.125 10.0625 C-6.22070312 10.05347656 -7.31640625 10.04445313 -8.4453125 10.03515625 C-9.70988281 10.01775391 -9.70988281 10.01775391 -11 10 C-11 9.67 -11 9.34 -11 9 C-8.03 9 -5.06 9 -2 9 C-2 6.36 -2 3.72 -2 1 C-1.34 0.67 -0.68 0.34 0 0 Z " fill="#E7C065" transform="translate(80,49)"/>
<path d="M0 0 C2.96175123 0.61277612 4.38058783 1.25372522 7 3 C6.33333333 4.33333333 5.66666667 5.66666667 5 7 C4.95977609 9.3329866 4.95679753 11.66706666 5 14 C3 13 3 13 2.1484375 10.56640625 C1.89320312 9.57511719 1.63796875 8.58382813 1.375 7.5625 C0.98441406 6.07943359 0.98441406 6.07943359 0.5859375 4.56640625 C0 2 0 2 0 0 Z " fill="#E9CE8A" transform="translate(114,7)"/>
<path d="M0 0 C4.95 0.33 9.9 0.66 15 1 C13.68 1.99 12.36 2.98 11 4 C10.67 4.33 10.34 4.66 10 5 C6.625 5.375 6.625 5.375 3 5 C2.01 3.35 1.02 1.7 0 0 Z " fill="#C8A149" transform="translate(36,55)"/>
<path d="M0 0 C2.97 0 5.94 0 9 0 C9 0.66 9 1.32 9 2 C11.97 2 14.94 2 18 2 C18 2.33 18 2.66 18 3 C15.58373582 3.19534474 13.16734771 3.38153404 10.75 3.5625 C10.06808594 3.61857422 9.38617188 3.67464844 8.68359375 3.73242188 C5.2579419 3.98186254 2.27298823 4.13879745 -1 3 C-0.67 2.01 -0.34 1.02 0 0 Z " fill="#232014" transform="translate(59,0)"/>
<path d="M0 0 C2.31 0 4.62 0 7 0 C6.01 0.495 6.01 0.495 5 1 C4.34227572 4.02934491 4.34227572 4.02934491 4 7 C2.02 6.34 0.04 5.68 -2 5 C-1.34 4.67 -0.68 4.34 0 4 C0 2.68 0 1.36 0 0 Z " fill="#CAA042" transform="translate(37,33)"/>
<path d="M0 0 C1.65 0 3.3 0 5 0 C5.98120464 3.05263664 5.98120464 4.94736336 5 8 C3.35 8 1.7 8 0 8 C0.66 5.69 1.32 3.38 2 1 C1.34 0.67 0.68 0.34 0 0 Z " fill="#D4AF54" transform="translate(73,50)"/>
<path d="M0 0 C0.99 0.66 1.98 1.32 3 2 C3 2.66 3 3.32 3 4 C1.20759337 3.88610125 -0.58394835 3.75852313 -2.375 3.625 C-3.87160156 3.52058594 -3.87160156 3.52058594 -5.3984375 3.4140625 C-8 3 -8 3 -10 1 C-6.87293041 -0.5635348 -3.42017557 -0.39958487 0 0 Z " fill="#DDAF4D" transform="translate(46,2)"/>
<path d="M0 0 C8.78723404 -0.29787234 8.78723404 -0.29787234 13 2 C13.33 2.66 13.66 3.32 14 4 C10.04 3.67 6.08 3.34 2 3 C2 2.34 2 1.68 2 1 C1.34 0.67 0.68 0.34 0 0 Z " fill="#EEDEA4" transform="translate(85,3)"/>
<path d="M0 0 C-0.33 0.99 -0.66 1.98 -1 3 C-3.97 3 -6.94 3 -10 3 C-10 2.01 -10 1.02 -10 0 C-6.30458414 -0.95024979 -3.69541586 -0.95024979 0 0 Z " fill="#E6BD64" transform="translate(56,57)"/>
<path d="M0 0 C3.3 0 6.6 0 10 0 C10 0.66 10 1.32 10 2 C10.66 2.33 11.32 2.66 12 3 C11.34 3.66 10.68 4.32 10 5 C7.06546739 4.63318342 6.13562754 4.13562754 4 2 C2.68 1.34 1.36 0.68 0 0 Z " fill="#F7F1C6" transform="translate(93,3)"/>
<path d="M0 0 C1.98 0.495 1.98 0.495 4 1 C4 1.33 4 1.66 4 2 C6.97 2.33 9.94 2.66 13 3 C13 3.33 13 3.66 13 4 C8.38 4 3.76 4 -1 4 C-0.67 2.68 -0.34 1.36 0 0 Z " fill="#B08C34" transform="translate(34,2)"/>
<path d="M0 0 C0.66 0 1.32 0 2 0 C1.34 2.64 0.68 5.28 0 8 C-0.99 7.67 -1.98 7.34 -3 7 C-2.25 2.25 -2.25 2.25 0 0 Z " fill="#ECD797" transform="translate(115,48)"/>
<path d="M0 0 C3.63 0 7.26 0 11 0 C11 0.33 11 0.66 11 1 C8.69 1 6.38 1 4 1 C4 1.66 4 2.32 4 3 C4.66 3.33 5.32 3.66 6 4 C4.68 4 3.36 4 2 4 C1.34 2.68 0.68 1.36 0 0 Z " fill="#D5CA9A" transform="translate(89,56)"/>
<path d="M0 0 C1.65 0 3.3 0 5 0 C5.33 1.32 5.66 2.64 6 4 C4.68 4 3.36 4 2 4 C1.34 2.68 0.68 1.36 0 0 Z " fill="#D6A944" transform="translate(36,55)"/>
<path d="M0 0 C0.66 0.33 1.32 0.66 2 1 C-0.64 2.98 -3.28 4.96 -6 7 C-6.66 6.34 -7.32 5.68 -8 5 C-7.236875 4.54625 -6.47375 4.0925 -5.6875 3.625 C-3.76367186 2.46175508 -1.87058776 1.2470585 0 0 Z " fill="#CABE91" transform="translate(96,35)"/>
<path d="M0 0 C0.66 0.33 1.32 0.66 2 1 C1.01 2.485 1.01 2.485 0 4 C1.32 3.67 2.64 3.34 4 3 C3.67 3.66 3.34 4.32 3 5 C0.4375 5.625 0.4375 5.625 -2 6 C-2.33 4.68 -2.66 3.36 -3 2 C-2.01 1.34 -1.02 0.68 0 0 Z " fill="#27261F" transform="translate(96,37)"/>
<path d="M0 0 C1.65 0 3.3 0 5 0 C5 0.66 5 1.32 5 2 C6.98 2 8.96 2 11 2 C11 2.33 11 2.66 11 3 C9.54176788 3.0270043 8.08339325 3.04639787 6.625 3.0625 C5.81289062 3.07410156 5.00078125 3.08570313 4.1640625 3.09765625 C2 3 2 3 0 2 C0 1.34 0 0.68 0 0 Z " fill="#E5DDAF" transform="translate(93,57)"/>
<path d="M0 0 C1.76462683 3.08809695 2 4.23312136 2 8 C1.01 7.67 0.02 7.34 -1 7 C-1.04254356 5.00045254 -1.04080783 2.99958364 -1 1 C-0.67 0.67 -0.34 0.34 0 0 Z " fill="#E8CE80" transform="translate(119,43)"/>
<path d="M0 0 C0 0.66 0 1.32 0 2 C-4.455 1.01 -4.455 1.01 -9 0 C-9 -0.33 -9 -0.66 -9 -1 C-3.375 -2.25 -3.375 -2.25 0 0 Z " fill="#1E1B13" transform="translate(56,35)"/>
</svg>
